<svg height="510" width="720" xmlns="http://www.w3.org/2000/svg">
<rect height="510" fill="#555" width="720"></rect>
<text fill="#7f7" font-family="Courier New" font-size="12" xml:space="preserve">
<tspan x="10" y="26">2018-04-22 08:27:41 +0000</tspan>

<tspan x="10" y="42">[ci skip] [build app] npm_package_swggAll=github-all</tspan>

<tspan x="10" y="58"></tspan>

<tspan x="10" y="74">2018-04-22 16:25:38 +0800</tspan>

<tspan x="10" y="90">[build app] npm_package_swggAll=github-all</tspan>

<tspan x="10" y="106">2018-04-22 08:11:32 +0000</tspan>

<tspan x="10" y="122">[ci skip] [build app] npm_package_swggAll=github-all</tspan>

<tspan x="10" y="138"></tspan>

<tspan x="10" y="154">2018-04-22 16:09:11 +0800</tspan>

<tspan x="10" y="170">[build app] npm_package_swggAll=github-all</tspan>

<tspan x="10" y="186">2018-02-25 17:55:11 +0700</tspan>

<tspan x="10" y="202">update.build</tspan>

<tspan x="10" y="218"></tspan>

<tspan x="10" y="234">2018-02-22 15:37:51 +0700</tspan>

<tspan x="10" y="250">update.build</tspan>

<tspan x="10" y="266"></tspan>

<tspan x="10" y="282">2018-02-19 16:40:13 +0700</tspan>

<tspan x="10" y="298">update.build</tspan>

<tspan x="10" y="314"></tspan>

<tspan x="10" y="330">2018-02-17 17:16:00 +0700</tspan>

<tspan x="10" y="346">[build clean]</tspan>

<tspan x="10" y="362"></tspan>

<tspan x="10" y="378">2018-02-17 16:49:47 +0700</tspan>

<tspan x="10" y="394">[npm publish] - npm publish v2018.2.16</tspan>

<tspan x="10" y="410"></tspan>

<tspan x="10" y="426">2018-02-17 16:49:02 +0700</tspan>

<tspan x="10" y="442">initial package</tspan>

<tspan x="10" y="458"></tspan>

<tspan x="10" y="474">2014-03-26 02:31:50 +0700</tspan>

<tspan x="10" y="490">add blank README.md</tspan>

</text>
</svg>
